<svg id="Layer_1" data-name="Layer 1" xmlns="http://www.w3.org/2000/svg" xmlns:xlink="http://www.w3.org/1999/xlink" viewBox="0 0 511.48 167.31"><defs><style>.cls-1{fill:none;}.cls-2{fill:#1d1d1b;}.cls-3{clip-path:url(#clip-path);}.cls-4{fill:url(#linear-gradient);}.cls-5{fill:url(#linear-gradient-2);}.cls-6{fill:url(#linear-gradient-3);}.cls-7{fill:url(#linear-gradient-4);}.cls-8{fill:#f9f9f9;}.cls-9{fill:#fcfcfd;}</style><clipPath id="clip-path" transform="translate(-96.64 -296.07)"><path class="cls-1" d="M207.49,369.72l-23.07-13.31-44.48-25.69c-2.47-1.43-4.93-.56-4.93,2.42V437.79c0,2.23,1.76,3.19,3.9,2l45.51-26.28,23.06-13.32,22.17-12.8c2.6-1.5,2.35-3.56.16-4.74S207.49,369.72,207.49,369.72Z"/></clipPath><linearGradient id="linear-gradient" x1="66.93" y1="32.21" x2="66.93" y2="145.51" gradientUnits="userSpaceOnUse"><stop offset="0" stop-color="#2079b0"/><stop offset="0.32" stop-color="#4a98b5"/><stop offset="0.78" stop-color="#81bfbc"/><stop offset="1" stop-color="#97cfbf"/></linearGradient><linearGradient id="linear-gradient-2" x1="38.36" y1="60.33" x2="110.84" y2="60.33" gradientUnits="userSpaceOnUse"><stop offset="0" stop-color="#5abcab"/><stop offset="1" stop-color="#e6e99a"/></linearGradient><linearGradient id="linear-gradient-3" x1="74.6" y1="88.86" x2="74.6" y2="145.93" gradientUnits="userSpaceOnUse"><stop offset="0" stop-color="#e53432"/><stop offset="0.18" stop-color="#d43745"/><stop offset="0.73" stop-color="#a33e7c"/><stop offset="1" stop-color="#904192"/></linearGradient><linearGradient id="linear-gradient-4" x1="116.35" y1="73.65" x2="116.35" y2="104.08" gradientUnits="userSpaceOnUse"><stop offset="0" stop-color="#f18779"/><stop offset="0.64" stop-color="#f9b574"/><stop offset="1" stop-color="#fdcb72"/></linearGradient></defs><path class="cls-2" d="M608.12,440.77a22.61,22.61,0,0,1-22.6,22.62H119.25a22.62,22.62,0,0,1-22.61-22.62V318.68a22.62,22.62,0,0,1,22.61-22.61H585.52a22.61,22.61,0,0,1,22.6,22.61Z" transform="translate(-96.64 -296.07)"/><g id="PLAY"><g class="cls-3"><polygon class="cls-4" points="38.37 32.21 38.37 88.86 38.37 145.51 95.5 88.86 38.37 32.21"/><polygon class="cls-5" points="110.84 73.65 87.78 60.33 38.37 31.8 38.37 32.21 95.5 88.86 110.84 73.65"/><polygon class="cls-6" points="38.37 145.51 38.37 145.93 87.78 117.39 110.84 104.08 95.5 88.86 38.37 145.51"/><polygon class="cls-7" points="110.84 73.65 95.5 88.86 110.84 104.08 137.2 88.86 110.84 73.65"/></g></g><path class="cls-8" d="M494.7,407.09a14.27,14.27,0,0,1-5.88-1.19,11.06,11.06,0,0,1-4.46-3.65H484a44.13,44.13,0,0,1,.36,5.47v13.56h-5V373.53h4.06l.69,4.51h.24a11.63,11.63,0,0,1,4.48-3.91,13.63,13.63,0,0,1,5.86-1.2q6.56,0,10.12,4.48T508.38,390q0,8.11-3.62,12.61A12.21,12.21,0,0,1,494.7,407.09ZM494,377.17c-3.37,0-5.8.93-7.31,2.8s-2.27,4.83-2.31,8.9V390q0,6.94,2.31,9.94c1.55,2,4,3,7.43,3a7.73,7.73,0,0,0,6.69-3.46q2.41-3.45,2.42-9.53t-2.42-9.46A8,8,0,0,0,494,377.17Z" transform="translate(-96.64 -296.07)"/><path class="cls-8" d="M519.93,406.48h-5V359.7h5Z" transform="translate(-96.64 -296.07)"/><path class="cls-8" d="M548.63,406.48l-1-4.69h-.24a13.8,13.8,0,0,1-4.91,4.2,15.05,15.05,0,0,1-6.12,1.1,11,11,0,0,1-7.68-2.53c-1.86-1.68-2.78-4.08-2.78-7.18q0-10,16-10.47l5.6-.18v-2q0-3.88-1.67-5.73t-5.34-1.85a21.62,21.62,0,0,0-9.32,2.53l-1.54-3.82a24.21,24.21,0,0,1,5.34-2.08,23.18,23.18,0,0,1,5.82-.75q5.89,0,8.73,2.62c1.9,1.74,2.84,4.54,2.84,8.39v22.48ZM537.35,403a10.09,10.09,0,0,0,7.32-2.56,9.43,9.43,0,0,0,2.66-7.16v-3l-5,.21q-6,.21-8.58,1.85a5.58,5.58,0,0,0-2.63,5.1,5.1,5.1,0,0,0,1.64,4.11A6.75,6.75,0,0,0,537.35,403Z" transform="translate(-96.64 -296.07)"/><path class="cls-8" d="M555.22,373.53h5.35l7.22,18.79a73.48,73.48,0,0,1,3,9.3H571q.39-1.55,1.63-5.25t8.17-22.84h5.35L572,411.05c-1.41,3.71-3,6.34-4.92,7.9a10.46,10.46,0,0,1-6.9,2.33,20.12,20.12,0,0,1-4.51-.51v-4a17.46,17.46,0,0,0,3.7.36q5.14,0,7.34-5.77l1.83-4.69Z" transform="translate(-96.64 -296.07)"/><path class="cls-8" d="M402.25,376.59c1.58,1.32,4.89,4.07,4.89,9.31s-2.89,7.51-5.79,9.79c-.89.89-1.93,1.86-1.93,3.38a3.79,3.79,0,0,0,1.8,3L403.7,404c3,2.55,5.78,4.9,5.78,9.66,0,6.48-6.27,13-18.12,13-10,0-14.82-4.75-14.82-9.86,0-2.48,1.24-6,5.31-8.4,4.27-2.62,10.06-3,13.16-3.18-1-1.24-2.07-2.55-2.07-4.68a6.26,6.26,0,0,1,.69-2.69c-.76.07-1.51.14-2.2.14-7.31,0-11.44-5.45-11.44-10.82a12.38,12.38,0,0,1,4.41-9.23c3.93-3.24,8.61-3.8,12.34-3.8h14.19l-4.41,2.48Zm-4.89,30.61a9.76,9.76,0,0,0-1.59-.08,28,28,0,0,0-7.24,1.11c-1.51.55-5.92,2.2-5.92,7.1s4.75,8.41,12.13,8.41c6.61,0,10.13-3.18,10.13-7.45C404.87,412.77,402.59,410.92,397.36,407.2Zm2-13.1a7,7,0,0,0,1.71-5c0-5-3-12.68-8.68-12.68a6.42,6.42,0,0,0-4.82,2.27,8,8,0,0,0-1.52,5.1c0,4.62,2.69,12.27,8.62,12.27A7.09,7.09,0,0,0,399.36,394.1Z" transform="translate(-96.64 -296.07)"/><path class="cls-8" d="M358.86,406.09a16.24,16.24,0,0,1-16.79-16.24c0-9,7.36-16.72,17.83-16.72a16.09,16.09,0,0,1,16.44,16.24C376.34,397.49,370.08,406.09,358.86,406.09Zm8.6-5.57a12.39,12.39,0,0,0,2.07-7.64c0-6.06-2.89-17.61-11.42-17.61a9.61,9.61,0,0,0-6.2,2.34c-2.68,2.4-3.16,5.43-3.16,8.4,0,6.8,3.37,18,11.7,18A8.79,8.79,0,0,0,367.46,400.52Z" transform="translate(-96.64 -296.07)"/><path class="cls-8" d="M321.57,406.09c-10.95,0-16.79-8.53-16.79-16.24,0-9,7.36-16.72,17.82-16.72A16.09,16.09,0,0,1,339,389.37C339,397.49,332.78,406.09,321.57,406.09Zm8.6-5.57a12.45,12.45,0,0,0,2.06-7.64c0-6.06-2.89-17.61-11.42-17.61a9.56,9.56,0,0,0-6.19,2.34c-2.69,2.4-3.17,5.43-3.17,8.4,0,6.8,3.37,18,11.7,18A8.79,8.79,0,0,0,330.17,400.52Z" transform="translate(-96.64 -296.07)"/><path class="cls-8" d="M299.52,405l-9.89,2.28a73.87,73.87,0,0,1-11.42,1.17c-19.09,0-26.35-14-26.35-25,0-13.42,10.3-25.87,27.95-25.87A39.88,39.88,0,0,1,290.39,359a26.84,26.84,0,0,1,9.13,4.29l-5.74,5.47-2.42.55,1.73-2.77c-2.36-2.28-6.65-6.5-14.81-6.5-10.93,0-19.16,8.3-19.16,20.41,0,13,9.41,25.25,24.48,25.25a20.59,20.59,0,0,0,8.79-1.73V392.84l-10.44.55,5.53-3h14.67l-1.8,1.73a1.59,1.59,0,0,0-.69,1.11c-.08.62-.14,2.63-.14,3.32Z" transform="translate(-96.64 -296.07)"/><path class="cls-8" d="M424.12,403c-2.29-.2-2.77-.62-2.77-3.32V360.55c0-.15,0-.3,0-.45.28-2.42,1-2.83,3.12-4.08h-9.9l-5.19,2.49h5.29v42.71c0,1.39-.28,1.6-1.87,3.67h12.25l2.56-1.52C426.47,403.23,425.29,403.16,424.12,403Z" transform="translate(-96.64 -296.07)"/><path class="cls-8" d="M452.26,403.66c-.75.41-1.5.9-2.26,1.24a16,16,0,0,1-6.67,1.3,14.69,14.69,0,0,1-9.14-2.68c-4.87-3.44-7-9.34-7-14.5,0-10.64,8.66-15.86,15.73-15.86a13.31,13.31,0,0,1,7.08,1.92,11.41,11.41,0,0,1,4.81,6.8l-16.14,6.53-5.3.41c1.72,8.72,7.63,13.8,14.16,13.8a17.73,17.73,0,0,0,8.38-2.4Zm-6.45-20.48c1.3-.48,2-.89,2-1.85,0-2.75-3.09-5.91-6.8-5.91-2.75,0-7.9,2.13-7.9,9.55,0,1.17.13,2.41.21,3.65Z" transform="translate(-96.64 -296.07)"/><path class="cls-8" d="M458.9,373.63v4.53h-.55v-4.53h-1.5v-.47h3.55v.47Z" transform="translate(-96.64 -296.07)"/><path class="cls-8" d="M465.08,378.16v-4.58h0l-1.4,4.58h-.43l-1.4-4.58h0v4.58h-.5v-5h.86l1.27,4h0l1.25-4h.87v5Z" transform="translate(-96.64 -296.07)"/><path class="cls-9" d="M265.6,344.09h-3.44a23.16,23.16,0,0,0-1-4h-5a20.2,20.2,0,0,0-1,4H252q0-.42,2.51-6.88A54.08,54.08,0,0,0,257,330.1h4.06a59.56,59.56,0,0,0,2.27,7A61.4,61.4,0,0,1,265.6,344.09Zm-5-6.07a61.4,61.4,0,0,1-1.83-6h-.18q0,.41-1.9,6Z" transform="translate(-96.64 -296.07)"/><path class="cls-9" d="M279.45,344.09h-2.66c0-.3-1-1.84-3-4.65s-3.24-5-3.52-6.07h-.18a37.55,37.55,0,0,1,.27,4.25q0,2.65.15,6.47h-2.64q.16-3.33.16-7.32t-.16-6.67h3.19c0,.38.89,1.9,2.65,4.55a26.56,26.56,0,0,1,3.25,5.72h.16a41,41,0,0,1-.26-4.29q0-2.93-.15-6h2.69q-.15,2.67-.15,6.67C279.3,339.47,279.35,341.9,279.45,344.09Z" transform="translate(-96.64 -296.07)"/><path class="cls-9" d="M295,336.61a7.94,7.94,0,0,1-2,5.33,6.82,6.82,0,0,1-5.48,2.28c-1.06,0-2.52-.05-4.38-.13q.14-3.24.14-7.32c0-2.6,0-4.83-.14-6.67h1.88l1.38,0,1.19,0c2.58,0,4.46.64,5.62,1.93A6.71,6.71,0,0,1,295,336.61Zm-2.94.46a5.18,5.18,0,0,0-1.2-3.47,4.56,4.56,0,0,0-3.67-1.41,12.17,12.17,0,0,0-1.27.09c.07,1.44.11,2.93.11,4.49,0,1.72,0,3.41.1,5.1a7.45,7.45,0,0,0,1.4.13,4,4,0,0,0,3.42-1.43A5.55,5.55,0,0,0,292.08,337.07Z" transform="translate(-96.64 -296.07)"/><path class="cls-9" d="M309.37,344.09h-3.18a20.89,20.89,0,0,0-1.91-4.7,2.51,2.51,0,0,0-2.15-.89h-1.19c0,1.84,0,3.7.1,5.58h-3q.13-3.24.14-7.32c0-2.6-.05-4.83-.14-6.67h1.86l1.35,0,1.89,0q4.94,0,4.93,3.37a3.78,3.78,0,0,1-2.81,3.73v.16a3.33,3.33,0,0,1,1.9,1.69A37.69,37.69,0,0,1,309.37,344.09Zm-4-9.88c0-1.43-.91-2.14-2.75-2.14a9.46,9.46,0,0,0-1.78.15c.08,1.11.12,2.56.12,4.34l1,0C304.21,336.58,305.34,335.79,305.34,334.21Z" transform="translate(-96.64 -296.07)"/><path class="cls-9" d="M324.77,336.84a7.71,7.71,0,0,1-2,5.47,6.56,6.56,0,0,1-5,2.17,6.31,6.31,0,0,1-4.75-2,7,7,0,0,1-1.91-5.06,7.71,7.71,0,0,1,2-5.47,6.52,6.52,0,0,1,5-2.17,6.32,6.32,0,0,1,4.75,2A7,7,0,0,1,324.77,336.84Zm-3,.31a5.57,5.57,0,0,0-1.15-3.64,3.55,3.55,0,0,0-2.84-1.4,3.27,3.27,0,0,0-2.66,1.41,5.61,5.61,0,0,0-1.1,3.55,5.54,5.54,0,0,0,1.16,3.64,3.54,3.54,0,0,0,2.83,1.4,3.27,3.27,0,0,0,2.66-1.41A5.63,5.63,0,0,0,321.81,337.15Z" transform="translate(-96.64 -296.07)"/><path class="cls-9" d="M330.85,344.09h-3q.13-3.33.13-7.32t-.13-6.67h3c-.1,1.81-.14,4-.14,6.67S330.75,341.91,330.85,344.09Z" transform="translate(-96.64 -296.07)"/><path class="cls-9" d="M346.42,336.61a7.94,7.94,0,0,1-2,5.33,6.82,6.82,0,0,1-5.48,2.28c-1.06,0-2.52-.05-4.38-.13q.13-3.24.14-7.32c0-2.6-.05-4.83-.14-6.67h1.88l1.37,0,1.2,0c2.58,0,4.46.64,5.62,1.93A6.71,6.71,0,0,1,346.42,336.61Zm-2.94.46a5.18,5.18,0,0,0-1.2-3.47,4.56,4.56,0,0,0-3.67-1.41,12.17,12.17,0,0,0-1.27.09c.07,1.44.11,2.93.11,4.49,0,1.72,0,3.41.1,5.1a7.37,7.37,0,0,0,1.4.13,4,4,0,0,0,3.42-1.43A5.55,5.55,0,0,0,343.48,337.07Z" transform="translate(-96.64 -296.07)"/><path class="cls-9" d="M367.07,344.09h-3.44a22.68,22.68,0,0,0-1-4h-5a21,21,0,0,0-1,4h-3.23q0-.42,2.51-6.88a54.08,54.08,0,0,0,2.51-7.11h4.06a57.37,57.37,0,0,0,2.27,7A62.43,62.43,0,0,1,367.07,344.09Zm-5-6.07a60,60,0,0,1-1.84-6h-.17q0,.41-1.9,6Z" transform="translate(-96.64 -296.07)"/><path class="cls-9" d="M379.6,333.77a4.17,4.17,0,0,1-1.91,3.79,8.52,8.52,0,0,1-4.67,1.22,6.48,6.48,0,0,1-.72,0c0,1.35,0,3.12.12,5.33h-3q.14-3.1.14-7.32c0-2.57-.05-4.8-.14-6.67h1.87l1.52,0,2,0a6.15,6.15,0,0,1,3.44.92A3.13,3.13,0,0,1,379.6,333.77Zm-2.77.59c0-1.54-1-2.3-3.05-2.3a8.36,8.36,0,0,0-1.61.16c.08,1.35.12,2.88.12,4.6l.62,0Q376.82,336.84,376.83,334.36Z" transform="translate(-96.64 -296.07)"/><path class="cls-9" d="M392.49,333.77a4.19,4.19,0,0,1-1.91,3.79,8.53,8.53,0,0,1-4.68,1.22,6.48,6.48,0,0,1-.72,0c0,1.35,0,3.12.12,5.33h-3q.14-3.1.14-7.32c0-2.57-.05-4.8-.14-6.67h1.87l1.52,0,2,0a6.21,6.21,0,0,1,3.45.92A3.13,3.13,0,0,1,392.49,333.77Zm-2.78.59c0-1.54-1-2.3-3-2.3a8.44,8.44,0,0,0-1.61.16c.08,1.35.12,2.88.12,4.6l.62,0C388.41,336.84,389.71,336,389.71,334.36Z" transform="translate(-96.64 -296.07)"/><path class="cls-9" d="M413.55,336.84a7.71,7.71,0,0,1-2,5.47,6.57,6.57,0,0,1-5,2.17,6.3,6.3,0,0,1-4.75-2,7,7,0,0,1-1.91-5.06,7.74,7.74,0,0,1,2-5.47,6.56,6.56,0,0,1,5-2.17,6.32,6.32,0,0,1,4.75,2A7,7,0,0,1,413.55,336.84Zm-3,.31a5.56,5.56,0,0,0-1.14-3.64,3.56,3.56,0,0,0-2.84-1.4,3.26,3.26,0,0,0-2.66,1.41,5.61,5.61,0,0,0-1.1,3.55,5.48,5.48,0,0,0,1.16,3.64,3.53,3.53,0,0,0,2.83,1.4,3.27,3.27,0,0,0,2.66-1.41A5.63,5.63,0,0,0,410.58,337.15Z" transform="translate(-96.64 -296.07)"/><path class="cls-9" d="M428.11,344.09h-2.65c0-.3-1-1.84-3-4.65s-3.23-5-3.52-6.07h-.17a37.55,37.55,0,0,1,.27,4.25q0,2.65.15,6.47h-2.65q.17-3.33.17-7.32t-.17-6.67h3.19q0,.57,2.66,4.55a26.82,26.82,0,0,1,3.24,5.72h.16a40.78,40.78,0,0,1-.25-4.29q0-2.93-.16-6h2.69q-.15,2.67-.15,6.67C428,339.47,428,341.9,428.11,344.09Z" transform="translate(-96.64 -296.07)"/></svg>