<svg id="Layer_1" data-name="Layer 1" xmlns="http://www.w3.org/2000/svg" viewBox="0 0 521.71 170.66"><defs><style>.cls-1{fill:#fff;}</style></defs><path d="M618.35,1083.42a23.06,23.06,0,0,1-23.06,23.06H119.7a23.07,23.07,0,0,1-23.06-23.06V958.89a23.06,23.06,0,0,1,23.06-23.06H595.29a23.05,23.05,0,0,1,23.06,23.06Z" transform="translate(-96.64 -935.83)"/><path class="cls-1" d="M232.69,1048.63a84.74,84.74,0,0,1-7.64,14.26c-5,7.56-12,17-20.62,17-7.7.07-9.68-5-20.13-5s-12.63,5-20.33,5c-8.66-.08-15.29-8.57-20.25-16.13-13.88-21.12-15.33-45.9-6.77-59.08,6.08-9.37,15.67-14.85,24.69-14.85,9.19,0,15,5,22.55,5,7.37,0,11.86-5,22.48-5,8,0,16.53,4.37,22.59,11.93C209.4,1012.69,212.63,1041.05,232.69,1048.63Z" transform="translate(-96.64 -935.83)"/><path class="cls-1" d="M198.61,981.45c3.86-5,6.79-12,5.73-19.09-6.3.43-13.68,4.44-18,9.67-3.91,4.74-7.13,11.78-5.88,18.62C187.36,990.86,194.48,986.75,198.61,981.45Z" transform="translate(-96.64 -935.83)"/><path class="cls-1" d="M275,1004.42l-19.88,58.5h9.1l5.94-18h19.24l6.1,18h9.36l-20-58.5Zm4.71,9.62c.67,2.61,1.4,5.32,2.33,8.25l5.36,15.51H272.11l5.28-15.61C278.2,1019.66,279,1016.93,279.67,1014Z" transform="translate(-96.64 -935.83)"/><path class="cls-1" d="M330.54,1019.59c-6,0-10.86,2.32-14.08,6.75l-.35-5.82H308l.05.74c.24,3.63.34,7.62.34,13.35v45.09h8.85v-21a15.56,15.56,0,0,0,12.1,5.19,18.21,18.21,0,0,0,13.41-5.7c3.88-4.1,5.93-10,5.93-17,0-6.22-1.78-11.6-5.15-15.55A16.8,16.8,0,0,0,330.54,1019.59Zm-2.21,7.32c7.89,0,11.42,7.31,11.42,14.56,0,9.34-4.5,15.14-11.76,15.14a10.72,10.72,0,0,1-10.42-8.21,11.09,11.09,0,0,1-.32-2.87v-7.11a14.12,14.12,0,0,1,.28-2.19c.05-.24.09-.48.13-.72A11.21,11.21,0,0,1,328.33,1026.91Z" transform="translate(-96.64 -935.83)"/><path class="cls-1" d="M376.12,1019.59c-6,0-10.86,2.32-14.08,6.75l-.35-5.82H353.6l0,.74c.24,3.63.34,7.62.34,13.35v45.09h8.85v-21a15.56,15.56,0,0,0,12.1,5.19,18.26,18.26,0,0,0,13.42-5.7c3.87-4.1,5.92-10,5.92-17,0-6.22-1.78-11.6-5.15-15.55A16.8,16.8,0,0,0,376.12,1019.59Zm-2.21,7.32c7.89,0,11.42,7.31,11.42,14.56,0,9.34-4.51,15.14-11.76,15.14a10.72,10.72,0,0,1-10.42-8.21,11.09,11.09,0,0,1-.32-2.87v-7.11a13.19,13.19,0,0,1,.29-2.2l.12-.71A11.21,11.21,0,0,1,373.91,1026.91Z" transform="translate(-96.64 -935.83)"/><path class="cls-1" d="M433.22,1029.21c-8.26-3.2-10.91-5.72-10.91-10.36,0-3.92,3.11-7.87,10.06-7.87a20.14,20.14,0,0,1,10.39,2.61l.75.47,2.5-7.39-.49-.29c-1.49-.87-5.71-2.89-12.89-2.89-11.29,0-19.18,6.66-19.18,16.2,0,7.69,4.94,13.07,15.54,16.92,7.51,2.81,10.31,5.69,10.31,10.62,0,5.58-4.32,9-11.25,9a24.23,24.23,0,0,1-12.76-3.62l-.77-.49-2.37,7.56.43.29c3.34,2.23,9.63,3.84,15,3.84,15.21,0,20.61-9.27,20.61-17.22C448.15,1038.45,443.82,1033.39,433.22,1029.21Z" transform="translate(-96.64 -935.83)"/><path class="cls-1" d="M464.08,1010.44l-8.68,2.72v7.36H449v7.07h6.36v21.67c0,5.24,1,8.91,3.06,11.23a11.35,11.35,0,0,0,8.57,3.36,21,21,0,0,0,6.84-1l.5-.18-.43-7.08-.85.26a13.43,13.43,0,0,1-4.11.47c-3.43,0-4.9-2.17-4.9-7.26v-21.42h10.68v-7.07H464.08Z" transform="translate(-96.64 -935.83)"/><path class="cls-1" d="M496.7,1019.59c-12.39,0-21,9.24-21,22.47,0,12.83,8.37,21.79,20.36,21.79h.08c10.13,0,21-7,21-22.55,0-6.3-2-11.72-5.64-15.66A19.68,19.68,0,0,0,496.7,1019.59Zm-.26,7c8,0,11.59,7.77,11.59,15,0,8.88-4.95,15.32-11.76,15.32h-.08c-6.72,0-11.59-6.34-11.59-15.06C484.6,1034.23,488.26,1026.57,496.44,1026.57Z" transform="translate(-96.64 -935.83)"/><path class="cls-1" d="M544.24,1020l-.53-.14a8.66,8.66,0,0,0-2.2-.27,12.63,12.63,0,0,0-11.1,7.12l-.26-6.19h-7.94l0,.74c.24,3.51.34,7.44.34,12.75l-.09,28.91h8.86v-22.55a23,23,0,0,1,.24-3.44c1-5.41,4.65-8.92,9.31-8.92.91,0,1.62.08,2.38.15l.94.1Z" transform="translate(-96.64 -935.83)"/><path class="cls-1" d="M564.14,1019.5c-11.78,0-20,9.42-20,22.9,0,13,8.19,21.37,20.86,21.37a33.91,33.91,0,0,0,14-2.69l.53-.24-1.7-6.59-.74.29a27.24,27.24,0,0,1-11.09,2c-3.85,0-12.72-1.27-13.26-12.84l28.57.09.12-.57a19.74,19.74,0,0,0,.26-3.69C581.7,1030.29,577.11,1019.5,564.14,1019.5Zm-.59,6.74a8.74,8.74,0,0,1,6.5,2.47c2.55,2.6,3,6.41,3.05,8.25H552.91C553.74,1031.84,556.93,1026.24,563.55,1026.24Z" transform="translate(-96.64 -935.83)"/><path class="cls-1" d="M255.08,964.46a64.13,64.13,0,0,1,8.49-.58c5.71,0,9.77,1.15,12.47,3.41s4.38,5.5,4.38,10A14,14,0,0,1,276,988c-2.92,2.58-7.67,4-13.65,4a61,61,0,0,1-7.26-.33Zm4,24.52a27.63,27.63,0,0,0,4,.17c8.49,0,13.1-4.28,13.1-11.75,0-6.62-4.07-10.69-12.46-10.69a25.47,25.47,0,0,0-4.66.37Z" transform="translate(-96.64 -935.83)"/><path class="cls-1" d="M294.65,992.23c-5.93,0-10.59-4-10.59-10.23,0-6.66,4.89-10.56,11-10.56,6.35,0,10.63,4.15,10.63,10.19,0,7.39-5.7,10.6-10.95,10.6Zm.14-2.72c3.83,0,6.71-3.24,6.71-7.76,0-3.37-1.87-7.6-6.62-7.6s-6.75,3.94-6.75,7.72c0,4.36,2.74,7.64,6.62,7.64Z" transform="translate(-96.64 -935.83)"/><path class="cls-1" d="M312,971.89,315,982c.59,2.21,1.18,4.31,1.59,6.36h.14c.5-2,1.23-4.15,2-6.32l3.61-10.11h3.38l3.42,9.94c.82,2.34,1.46,4.48,2,6.49h.14a56.47,56.47,0,0,1,1.69-6.45l3.15-10h4l-7.12,19.88h-3.65l-3.38-9.48a67.28,67.28,0,0,1-2-6.58h-.09a57,57,0,0,1-2,6.62l-3.56,9.44h-3.65l-6.67-19.88Z" transform="translate(-96.64 -935.83)"/><path class="cls-1" d="M344,977.27c0-2.09,0-3.73-.18-5.38h3.56l.23,3.25h.09a8.36,8.36,0,0,1,7.3-3.7c3.06,0,7.81,1.64,7.81,8.46v11.87h-4V980.31c0-3.2-1.32-5.91-5.11-5.91a5.74,5.74,0,0,0-5.39,3.69,5,5,0,0,0-.27,1.69v12h-4Z" transform="translate(-96.64 -935.83)"/><path class="cls-1" d="M369.35,962.61h4v29.16h-4Z" transform="translate(-96.64 -935.83)"/><path class="cls-1" d="M389,992.23c-5.93,0-10.59-4-10.59-10.23,0-6.66,4.88-10.56,11-10.56,6.34,0,10.63,4.15,10.63,10.19,0,7.39-5.7,10.6-10.95,10.6Zm.14-2.72c3.83,0,6.71-3.24,6.71-7.76,0-3.37-1.87-7.6-6.62-7.6s-6.76,3.94-6.76,7.72c0,4.36,2.74,7.64,6.62,7.64Z" transform="translate(-96.64 -935.83)"/><path class="cls-1" d="M420.66,987a29.79,29.79,0,0,0,.32,4.76h-3.61l-.37-2.5h-.13a8.51,8.51,0,0,1-6.76,3c-4.47,0-6.75-2.84-6.75-5.71,0-4.81,4.74-7.44,13.28-7.4v-.41c0-1.64-.5-4.64-5-4.6a11.49,11.49,0,0,0-5.8,1.48l-.91-2.42a15.49,15.49,0,0,1,7.3-1.73c6.8,0,8.45,4.15,8.45,8.13Zm-3.93-5.38c-4.38-.08-9.36.61-9.36,4.48,0,2.38,1.74,3.45,3.75,3.45a5.58,5.58,0,0,0,5.43-3.33,3.29,3.29,0,0,0,.18-1.15Z" transform="translate(-96.64 -935.83)"/><path class="cls-1" d="M446.17,962.61v24c0,1.77.05,3.78.19,5.13h-3.61l-.18-3.45h-.09c-1.23,2.22-3.88,3.91-7.49,3.91-5.34,0-9.49-4.07-9.49-10.11-.05-6.66,4.56-10.68,9.9-10.68,3.43,0,5.71,1.44,6.67,3h.09V962.61Zm-4,17.37a6,6,0,0,0-.19-1.56,5.8,5.8,0,0,0-5.79-4.15c-4.16,0-6.62,3.29-6.62,7.65,0,4.06,2.24,7.39,6.53,7.39A6,6,0,0,0,442,985a5.61,5.61,0,0,0,.19-1.56Z" transform="translate(-96.64 -935.83)"/><path class="cls-1" d="M471.51,992.23c-5.93,0-10.59-4-10.59-10.23,0-6.66,4.89-10.56,11-10.56,6.34,0,10.63,4.15,10.63,10.19,0,7.39-5.71,10.6-10.95,10.6Zm.14-2.72c3.83,0,6.71-3.24,6.71-7.76,0-3.37-1.87-7.6-6.62-7.6s-6.76,3.94-6.76,7.72c0,4.36,2.74,7.64,6.62,7.64Z" transform="translate(-96.64 -935.83)"/><path class="cls-1" d="M487.58,977.27c0-2.09,0-3.73-.18-5.38H491l.23,3.25h.09a8.37,8.37,0,0,1,7.3-3.7c3.06,0,7.81,1.64,7.81,8.46v11.87h-4V980.31c0-3.2-1.32-5.91-5.11-5.91a5.74,5.74,0,0,0-5.39,3.69,5,5,0,0,0-.27,1.69v12h-4Z" transform="translate(-96.64 -935.83)"/><path class="cls-1" d="M527.43,967.13v4.76h5.75v2.75h-5.75v10.73c0,2.46.78,3.86,3,3.86a8.13,8.13,0,0,0,2.33-.25l.18,2.75a11.94,11.94,0,0,1-3.56.5,6.11,6.11,0,0,1-4.34-1.52c-1.1-1.11-1.55-2.88-1.55-5.22V974.64h-3.43v-2.75h3.43v-3.65Z" transform="translate(-96.64 -935.83)"/><path class="cls-1" d="M537.71,962.61h4V975h.09a6.89,6.89,0,0,1,2.88-2.54,8.46,8.46,0,0,1,4.11-1c3,0,7.71,1.64,7.71,8.5v11.83h-4V980.35c0-3.24-1.33-5.91-5.12-5.91a5.76,5.76,0,0,0-5.38,3.61,4,4,0,0,0-.28,1.73v12h-4Z" transform="translate(-96.64 -935.83)"/><path class="cls-1" d="M565.32,982.45c.1,4.89,3.52,6.9,7.54,6.9a16.56,16.56,0,0,0,6.11-1l.74,2.55a19.67,19.67,0,0,1-7.4,1.28c-6.76,0-10.87-4.07-10.87-10s4-10.76,10.41-10.76c7.21,0,9.08,5.71,9.08,9.37a8.57,8.57,0,0,1-.13,1.72Zm11.74-2.59c0-2.26-1-5.87-5.53-5.87-4.11,0-5.84,3.37-6.16,5.87Z" transform="translate(-96.64 -935.83)"/></svg>